<svg version="1.1" xmlns="http://www.w3.org/2000/svg" viewBox="0 0 1889.0186033936016 928.4375" width="3778.037206787203" height="1856.875">
  <!-- svg-source:excalidraw -->
  
  <defs>
    <style>
      @font-face {
        font-family: "Virgil";
        src: url("https://excalidraw.com/FG_Virgil.woff2");
      }
      @font-face {
        font-family: "Cascadia";
        src: url("https://excalidraw.com/Cascadia.woff2");
      }
    </style>
  </defs>
  <rect x="0" y="0" width="1889.0186033936016" height="928.4375" fill="#ffffff"></rect><g stroke-opacity="0.5" fill-opacity="0.5" transform="translate(10 12.009644259644801) rotate(0 343 216)"><path d="M-0.7870720408856869 -0.7544855929911137 C250.69105437565597 1.3672127196118236, 502.36375858150427 0.9709483811184765, 685.7576478697359 0.6203200243413449 M0.36086794845759873 0.2567399967461825 C160.4683775605634 -0.5792553542926907, 320.41633631512525 -0.6147857903316616, 686.1826690267771 0.0165915597230196 M685.6867336407653 -0.5576826167821012 C684.8727076441616 139.46142420112523, 685.1369233730305 278.97425934285224, 686.8273398712444 431.51279363627424 M686.4111195976627 -0.16463082059102244 C683.6489788921941 145.5697931639701, 684.2125446109931 291.6564196550723, 686.1777351319283 431.5242509108129 M686.6024398781359 432.3753574989736 C463.52039923649284 430.19020815039426, 239.32439146228134 431.2659668221548, 0.794103453308344 431.3677946470678 M686.1588499497623 431.84592497237026 C513.4230530580505 432.46184872774035, 340.0956496447325 432.1756949701682, -0.38980566747486595 431.6906253207475 M0.7991474793337784 431.84685652082055 C-0.04796773841230473 327.63275144735496, -0.79655381712236 222.0080633840861, 0.3429331761381827 -0.4631074337814651 M0.3322887674307424 432.02359264936916 C1.8468845982795736 320.9138344937563, 1.469705628619518 210.181873743293, -0.41258347071202206 0.3341580599806886" stroke="#000000" stroke-width="1" fill="none"></path></g><g stroke-opacity="0.5" fill-opacity="0.5" transform="translate(18 23.5096442596448) rotate(0 22 13)"><text x="0" y="18" font-family="Virgil, Segoe UI Emoji" font-size="20px" fill="#000000" text-anchor="start" style="white-space: pre;" direction="ltr">Auth</text></g><g stroke-opacity="0.5" fill-opacity="0.5" transform="translate(39 60.0096442596448) rotate(0 9.5 9)"><path d="M13.879314934337444 0.5274807984015428 C15.935283654381138 1.2851894073045163, 18.094322604693275 4.077727256148824, 18.756744512051583 5.801907990928028 C19.41916641940989 7.526088725707231, 18.48942394017976 9.04159322957271, 17.853846378487283 10.87256520707676 C17.218268816794808 12.703537184580812, 16.29452494309951 15.477980058907884, 14.94327914189674 16.787739855952335 C13.59203334069397 18.097499652996788, 11.699927508607098 19.10583182632052, 9.746371571270657 18.73112398934347 C7.792815633934215 18.356416152366418, 4.964781713891396 16.082981582035725, 3.2219435178780893 14.539492834090014 C1.4791053218647823 12.996004086144303, -0.44484490299941415 11.385206440036395, -0.7106576048091853 9.470191501669207 C-0.9764703066189564 7.55517656330202, 0.4831269373800473 4.584054312026994, 1.6270673070194626 3.0494032038868877 C2.771007676658878 1.5147520957467815, 3.847335331588034 0.30250133556468856, 6.152984613027306 0.2622848528285697 C8.458633894466578 0.22206837009245092, 13.82598779821975 2.2714628326762614, 15.460962995655095 2.808104307470175 C17.09593819309044 3.3447457822640883, 15.99622435397374 3.617192201683367, 15.962835797639377 3.4821337015920504 M4.2029567165377495 1.3104627958522457 C5.7073582904202675 0.15356798649511338, 9.702931659617683 -0.5297965444578944, 11.58209143794776 -0.29349357445948954 C13.461251216277837 -0.05719060446108473, 14.449938676616915 1.2800750197435928, 15.477915386518212 2.7282806158426745 C16.50589209641951 4.176486211941756, 17.701037915448335 6.53857961443345, 17.74995169735555 8.395740002135 C17.798865479262762 10.25290038983655, 17.147837834631083 12.457538039460166, 15.771398077961488 13.871242942051971 C14.394958321291892 15.284947844643776, 11.115898648042673 16.59065412721347, 9.491313157337974 16.877969417685826 C7.866727666633273 17.165284708158183, 7.437746282691774 16.33430247159169, 6.023885133733284 15.595134684886105 C4.610023984774794 14.855966898180519, 1.9583165803381926 13.966164892032529, 1.0081462635870366 12.442962697452307 C0.0579759468358807 10.919760502872085, -0.310628767653614 8.301526088301427, 0.32286323322634836 6.455921517404772 C0.9563552341063107 4.610316946508117, 3.849543855308031 2.280859646554378, 4.809098268866811 1.3693352720723784 C5.768652682425592 0.45781089759037863, 6.009587442104953 0.9759273209843674, 6.080189714579031 0.9867752705127737" stroke="#000000" stroke-width="1" fill="none"></path></g><g stroke-opacity="0.5" fill-opacity="0.5" transform="translate(193 87.0096442596448) rotate(0 9.5 9)"><path d="M13.684550457839725 -0.02286779611736378 C15.623319685891644 0.7343606814482464, 17.4857540538015 3.3118557316416286, 18.38675699696165 5.127182667179197 C19.287759940121802 6.942509602716765, 19.634946272861384 8.8492269005168, 19.090568116800632 10.869093817108045 C18.54618996073988 12.888960733699289, 16.993430810688963 15.99339701190706, 15.120488060597133 17.24638416672666 C13.2475453105053 18.49937132154626, 10.046358861172047 18.762998648559748, 7.8529116162496395 18.38701674602564 C5.659464371327232 18.011034843491533, 3.415637779432452 16.54759215925761, 1.959804591062687 14.99049275152202 C0.5039714026929218 13.433393343786427, -1.0273433560293814 11.10527630983557, -0.8820875139689512 9.044420299612092 C-0.736831671908521 6.983564289388614, 1.523942751594831 3.9548932086690503, 2.8313396434252684 2.625356690181148 C4.138736535255706 1.2958201716932454, 4.759954295076932 1.1378933520493233, 6.962293837013673 1.0672011886846775 C9.164633378950414 0.9965090253200316, 14.33753508452279 1.6063989301000174, 16.045376895045717 2.2012037099932726 C17.753218705568642 2.796008489886528, 17.436741070638117 4.574781356278494, 17.209344700151235 4.636029868044209 M10.89764804492199 -0.980062894324977 C12.788285189972123 -0.741391846603793, 14.421146305125077 2.2524313835638043, 15.598914321766465 3.7340934007047464 C16.776682338407852 5.215755417845688, 17.698053276773702 6.323897465067689, 17.964256144770314 7.909909208520675 C18.230459012766925 9.49592095197366, 18.312460408008555 11.431929803490819, 17.196131529746125 13.250163861422664 C16.079802651483696 15.068397919354508, 13.103271586467942 18.27928172033811, 11.26628287519573 18.819313556111744 C9.429294163923517 19.35934539188538, 7.735013664205522 17.231507815566466, 6.174199262112853 16.490354876064472 C4.613384860020184 15.74920193656248, 2.830096932745519 15.979002699924227, 1.901396462639715 14.37239591909979 C0.972695992533911 12.765789138275352, 0.13664976325135675 8.865053888849593, 0.601996441478029 6.850714191117854 C1.0673431197047012 4.836374493386115, 2.9064401671093556 3.2922092633439703, 4.693476531999749 2.2863577327093605 C6.480512896890142 1.2805062020747504, 10.548729725632931 0.9425040553066273, 11.324214630820387 0.815605007310193 C12.099699536007844 0.6887059593137588, 9.372227547872832 1.5266201768912409, 9.346385963124483 1.524963444730755" stroke="#000000" stroke-width="1" fill="none"></path></g><g stroke-opacity="0.5" fill-opacity="0.5" transform="translate(25 94.0096442596448) rotate(0 37 19.5)"><path d="M-1.6019583996385336 -0.13390895165503025 C19.324422556348146 2.3287720813788475, 36.61127142310143 0.30243618631735447, 74.86442511714995 -1.335170054808259 M-0.5037363292649388 0.1436500521376729 C14.95491883456707 -0.6153101135604084, 28.679247635789217 -0.7417186011187733, 73.16864051204175 -0.5538432328030467 M72.6375665012747 1.9725830312818289 C72.273266262291 10.175468689296395, 74.48923171210103 18.533602989278734, 74.99463033117354 38.800716077908874 M73.88000454287976 -0.3007106510922313 C74.66416905627585 11.507060433644803, 75.0021211038623 25.203653120249513, 74.37960897665471 39.104912099428475 M73.20550059713423 39.719324266538024 C48.73322886880487 37.0489030780457, 27.037562746554613 39.97410908361897, -0.8064598497003317 38.37659511528909 M74.46549235563725 38.78149896580726 C53.93218103908002 37.93878216555342, 32.240654199756676 39.31569818666205, 0.9627040205523372 39.685776081867516 M-0.12905210815370083 37.525687312707305 C1.7448299261648208 29.427689873334018, 0.6848516198713333 23.035600255616007, 1.2087742034345865 0.7395739909261465 M-0.8373912991955876 39.28459652978927 C-0.0644830807391554 26.353791391011328, -0.4236116453353316 15.205423576757312, -0.9270755769684911 -0.8651758460327983" stroke="#000000" stroke-width="1" fill="none"></path></g><g stroke-opacity="0.5" fill-opacity="0.5" transform="translate(42 103.0096442596448) rotate(0 18 13)"><text x="0" y="18" font-family="Virgil, Segoe UI Emoji" font-size="20px" fill="#000000" text-anchor="start" style="white-space: pre;" direction="ltr">idle1</text></g><g stroke-opacity="0.5" fill-opacity="0.5" transform="translate(140 43.0096442596448) rotate(0 264 96.5)"><path d="M-0.5948555015027523 -0.6699130393564702 C178.1524305842817 0.7626941267549991, 355.05528078749774 0.47539127507805823, 527.6098207689822 -0.7416604615747929 M0.2109827470034361 0.348180602863431 C112.54459615014495 -1.2700573601573706, 225.82058740668003 -1.0037819185107946, 528.16500046961 -0.06233145110309124 M526.2481022421271 -1.8566702846437693 C528.391152580129 56.161862270440906, 528.2514928773511 116.47712295968086, 529.7531343642622 194.5488973017782 M528.1655064402148 -0.8386243907734752 C528.8264641186502 46.62263008942828, 527.4971664866712 92.62559923790396, 527.2121899602935 192.6215733261779 M528.735687301308 193.36172143444418 C318.4490871839225 195.26543348792197, 109.02513126209371 194.58345442774893, 0.02646739259362221 192.20750788673757 M527.779049892351 193.11735367663204 C368.70807784758506 192.62258454336228, 209.7146154921502 191.95830502285065, -0.3796254087239504 192.9018954861909 M0.5123445335775614 192.3829803224653 C-1.4065900852251796 116.43125020349397, -0.9738048722315578 38.35034489836542, -0.7066948469728231 -0.866958225145936 M-0.9760722937062383 193.01431050617248 C-0.9539329785760493 143.50354686426, -0.7619274336751551 94.97889486327767, -0.23852611798793077 0.105758604593575" stroke="#000000" stroke-width="1" fill="none"></path></g><g stroke-opacity="0.5" fill-opacity="0.5" transform="translate(154 55.0096442596448) rotate(0 46.5 13)"><text x="0" y="18" font-family="Virgil, Segoe UI Emoji" font-size="20px" fill="#000000" text-anchor="start" style="white-space: pre;" direction="ltr">submitting</text></g><g stroke-opacity="0.5" fill-opacity="0.5" transform="translate(273 70.0096442596448) rotate(0 75.5 71.5)"><path d="M-1.8527953270822763 -0.2832335885614157 C39.70691833114252 1.796811469020322, 77.89850416649134 1.1384139732737095, 152.04204342328012 0.4780851546674967 M-0.8650479344651103 -0.7288445653393865 C57.690168710704896 0.09684887728653857, 116.35829753391445 -0.6180993894580751, 150.59814908821136 0.2546370504423976 M151.9198648687452 -1.202920800074935 C153.5582570521999 38.35250728344545, 153.24530197073705 72.66415523085743, 149.67319933138788 141.00492542423308 M151.15413811523467 0.40096049290150404 C152.47748195028865 41.91729507399723, 151.42875500417315 81.9682241909206, 151.07933789212257 142.71939064841717 M152.24781337939203 144.19963663257658 C94.69944594809785 140.5720954844635, 40.47814112361519 142.61504915448836, 0.815637206658721 142.62360262311995 M151.57831245381385 142.7204580483958 C114.06768840970472 141.89600668848493, 76.96007664129138 142.2316584736202, 0.5329283149912953 143.98269294481725 M0.45667276345193386 143.0509645882994 C-0.5516755182016639 107.29403769234196, -1.2366970974672584 67.85009335558861, -1.2772860173135996 0.1266582552343607 M0.5986677082255483 143.2889437554404 C0.22101607681252056 85.96203016648069, 1.3051912760827689 29.550509453192348, 0.7018707962706685 0.005206781439483166" stroke="#000000" stroke-width="1" fill="none"></path></g><g stroke-opacity="0.5" fill-opacity="0.5" transform="translate(466 74.0096442596448) rotate(0 85 68)"><path d="M-0.3401088956743479 -1.396503096446395 C40.78722738008947 -0.3732405641116203, 79.59202909469606 -1.396088514570147, 168.92222062312067 -1.4883013423532248 M0.23045411426573992 0.25054972153156996 C36.03578582406044 1.0614228243939579, 72.03328386228532 1.4579142625443637, 169.5711392732337 0.4638582644984126 M170.11164180003107 1.061329299584031 C169.73715769991279 51.45576076917351, 169.03325146183371 106.26882665343584, 171.9206384178251 135.13706683553755 M169.60401886422187 -0.4054051460698247 C171.50238214667885 49.81752281393856, 171.5160588794574 100.00897475313396, 169.3365468652919 136.45373450499028 M171.82687172852457 136.92520760931075 C115.9855724805966 135.4903556273319, 61.9817728511989 133.69705708483235, 1.089700972661376 136.95565133728087 M169.47037097532302 136.27734981756657 C133.8645777348429 136.67121753105894, 97.6648790454492 137.35909271249548, 0.2646942110732198 135.05426271539181 M-0.4644996766000986 134.13611083664 C1.3289357918500901 92.16926909349858, 0.6837491887807847 47.27548071034252, 0.27456209622323513 1.3869467917829752 M0.27167963702231646 136.24775870423764 C0.4020237277075649 86.96158083435148, 0.09395172696560627 36.31964715849608, -0.7442416874691844 0.7095041749998927" stroke="#000000" stroke-width="1" fill="none"></path></g><g stroke-opacity="0.5" fill-opacity="0.5" transform="translate(154 130.0096442596448) rotate(0 53 15.5)"><path d="M0.1266582552343607 1.9206384178251028 C27.898154005594556 2.0301798223890364, 58.7195097565651 1.2548491000570356, 105.20803772844374 -0.8108102921396494 M0.005206781439483166 -0.6634531347081065 C39.54859157800675 -0.5256926582567394, 77.28492662329228 -1.7424932585470378, 106.91343586426228 0.4626038046553731 M105.39452444948256 1.089700972661376 C107.1397639010381 8.625290895346552, 104.459796199603 22.28396393265575, 104.94074195064604 31.554699635133147 M106.06302468758076 0.2646942110732198 C104.86055906229653 9.469970322120936, 104.98075197749772 18.456615642458203, 105.76775016169995 30.06805541832 M107.4580239597708 31.274562096223235 C74.49411090966314 32.07592084458098, 38.97666430547832 31.491756046321242, 0.5433592740446329 31.49551740847528 M105.71641888003796 30.255758312530816 C79.56913427077234 30.683512089457363, 52.231926375068724 31.116825548615306, 0.9866531966254115 31.736454305239022 M-0.43912983499467373 29.76373497210443 C0.12174340878613293 23.827080957498403, -1.5132451971899719 17.896200487203895, -0.32438129745423794 1.7903905864804983 M-0.22140873689204454 31.378861484117806 C-0.10502115280367436 21.531288862135263, 0.09415316193364559 12.661435547098517, -0.0902859391644597 -0.19256940763443708" stroke="#000000" stroke-width="1" fill="none"></path></g><g stroke-opacity="0.5" fill-opacity="0.5" transform="translate(166 138.0096442596448) rotate(0 38.5 13)"><text x="0" y="18" font-family="Virgil, Segoe UI Emoji" font-size="20px" fill="#000000" text-anchor="start" style="white-space: pre;" direction="ltr">choosing</text></g><g stroke-opacity="0.5" fill-opacity="0.5" transform="translate(285 78.0096442596448) rotate(0 27.5 13)"><text x="0" y="18" font-family="Virgil, Segoe UI Emoji" font-size="20px" fill="#000000" text-anchor="start" style="white-space: pre;" direction="ltr">signup</text></g><g stroke-opacity="0.5" fill-opacity="0.5" transform="translate(478 80.0096442596448) rotate(0 20 13)"><text x="0" y="18" font-family="Virgil, Segoe UI Emoji" font-size="20px" fill="#000000" text-anchor="start" style="white-space: pre;" direction="ltr">login</text></g><g><g stroke-opacity="0.5" fill-opacity="0.5" transform="translate(59 142.0096442596448) rotate(0 30.06247006937855 31.2342575565024)"><path d="M0.8301579449325798 -0.24584015943109994 C0.5279588633527357 9.602292899911602, -14.114576763535538 48.43171404264867, -2.9503358986228703 58.535837575420736 C8.2139049662898 68.63996110819281, 56.23521936076383 59.940430097406114, 67.81560313440859 60.37890103720129 M-0.19314786331728095 -1.4205101884715259 C-0.4620227515387038 8.639760475226987, -14.625848433344313 49.886940703261644, -3.3473077090270817 59.829577553737906 C7.93123301529015 69.77221440421417, 55.8313538094672 58.33640345818674, 67.47809648258611 58.23531091438606" stroke="#000000" stroke-width="1" fill="none"></path></g><g stroke-opacity="0.5" fill-opacity="0.5" transform="translate(59 142.0096442596448) rotate(0 30.06247006937855 31.2342575565024)"><path d="M40.35342510267292 73.63437010237945 C45.53537836214242 70.25803155346088, 52.42341029992525 65.31721411294478, 69.42253517290577 58.23533133456483 M40.852747361540246 72.41912788694722 C50.30617495519198 67.84757508011984, 60.04993764578876 61.25738598123301, 68.38898681128397 57.82236748879775" stroke="#000000" stroke-width="1" fill="none"></path></g><g stroke-opacity="0.5" fill-opacity="0.5" transform="translate(59 142.0096442596448) rotate(0 30.06247006937855 31.2342575565024)"><path d="M37.829727265861 53.268934884483656 C43.435795708873044 54.0549030273931, 50.84178688816567 53.293851177120324, 69.42253517290577 58.23533133456483 M38.329049524728326 52.05369266905143 C48.74980119034445 54.57725057257541, 59.37505398895641 55.10040500798304, 68.38898681128397 57.82236748879775" stroke="#000000" stroke-width="1" fill="none"></path></g></g><g stroke-opacity="0.5" fill-opacity="0.5" transform="translate(39 217.0096442596448) rotate(0 41 13)"><text x="0" y="18" font-family="Virgil, Segoe UI Emoji" font-size="20px" fill="#000000" text-anchor="start" style="white-space: pre;" direction="ltr">SUBMIT</text></g><g><g stroke-opacity="0.5" fill-opacity="0.5" transform="translate(59 78.0096442596448) rotate(0 0.04786960749729019 6.805480662360793)"><path d="M0.7028639283031224 -0.8553168799728155 C0.9296170081943272 1.475935881709059, 0.2301610197871923 12.169252814228336, 0.1988868322223425 14.46627820469439 M-0.3872712386772037 1.3100378127023578 C-0.19949408065527682 3.23456602246811, -0.7126233137771488 10.52668732992063, -0.6447430444881321 12.58849951338023" stroke="#000000" stroke-width="1" fill="none"></path></g><g stroke-opacity="0.5" fill-opacity="0.5" transform="translate(59 78.0096442596448) rotate(0 0.04786960749729019 6.805480662360793)"><path d="M-3.402399938394894 6.07894706699867 C-2.146069204083559 7.596542567407829, -2.5851111070107224 7.985828374940646, -0.02092107320204395 12.498875464145094 M-3.1043577289018978 5.774441503424758 C-2.1617030233666252 7.831194303700103, -1.4512831136628737 9.272973963630191, -0.5739901848603042 12.599786608265713" stroke="#000000" stroke-width="1" fill="none"></path></g><g stroke-opacity="0.5" fill-opacity="0.5" transform="translate(59 78.0096442596448) rotate(0 0.04786960749729019 6.805480662360793)"><path d="M1.3848747881804382 6.177157385362993 C1.6680520955704687 7.70283683075493, 0.25624859349329276 8.0721665606023, -0.02092107320204395 12.498875464145094 M1.6829169976734346 5.8726518217890815 C1.3543544907331646 7.863315955768522, 0.794423609312038 9.279034534445394, -0.5739901848603042 12.599786608265713" stroke="#000000" stroke-width="1" fill="none"></path></g></g><g><g stroke-opacity="0.5" fill-opacity="0.5" transform="translate(204 112.0096442596448) rotate(0 -0.42989726997910793 13.39505544999615)"><path d="M1.1736467208713293 1.100863179937005 C0.7759355114152033 5.316404856617252, -1.5123829596986371 22.02881905374428, -2.0334412608295676 26.156898495927454 M0.3306725199893119 0.6332124040648339 C0.26364163675655944 4.468781209203104, 0.11749711750696124 20.75002584518244, 0.13595661360770483 24.64169545751065" stroke="#000000" stroke-width="1" fill="none"></path></g><g stroke-opacity="0.5" fill-opacity="0.5" transform="translate(204 112.0096442596448) rotate(0 -0.42989726997910793 13.39505544999615)"><path d="M-2.954600699002792 11.794133500257917 C-1.4153984405585653 15.713981015935122, -0.319103745956145 20.483264410368804, -0.700088227520801 25.168275656294522 M-3.514456791578483 12.325054485168605 C-2.5913885375784997 17.153910719672197, -0.7991475447362576 21.80721395473324, 0.008273229611187538 24.912097336690458" stroke="#000000" stroke-width="1" fill="none"></path></g><g stroke-opacity="0.5" fill-opacity="0.5" transform="translate(204 112.0096442596448) rotate(0 -0.42989726997910793 13.39505544999615)"><path d="M5.6026899222959345 11.823570320614888 C4.32289025334115 15.817414917873684, 2.6003948794100387 20.577001759912047, -0.7000882275208011 25.168275656294522 M5.0428338297202435 12.354491305525576 C2.8907380474213356 17.121420306449995, 1.6076239302104618 21.764144413149637, 0.008273229611187538 24.912097336690458" stroke="#000000" stroke-width="1" fill="none"></path></g></g><g><g stroke-opacity="0.5" fill-opacity="0.5" transform="translate(202 176.0096442596448) rotate(0 26.44122684573756 2.7910705971158905)"><path d="M-0.6005824360996485 -1.114772966131568 C7.766394591952363 -0.19998520078758408, 42.24059761029979 3.9205801143000523, 51.19415186308324 5.104582891240716 M1.2849730556085706 0.9143672813102603 C9.946591734575728 2.0762863716607294, 44.87329248675456 6.1549614625299975, 53.48303612757474 6.696914160363376" stroke="#000000" stroke-width="1" fill="none"></path></g><g stroke-opacity="0.5" fill-opacity="0.5" transform="translate(202 176.0096442596448) rotate(0 26.44122684573756 2.7910705971158905)"><path d="M26.349336738026118 11.940695301645299 C38.07547740675869 12.757450766627345, 49.22270714279628 6.672857799523008, 51.96519428741187 6.953447658307851 M27.255325035451328 12.901800313980182 C34.401710110418875 12.473273181951768, 40.82061500928607 10.592645575242928, 54.443565362766385 6.403626096174121" stroke="#000000" stroke-width="1" fill="none"></path></g><g stroke-opacity="0.5" fill-opacity="0.5" transform="translate(202 176.0096442596448) rotate(0 26.44122684573756 2.7910705971158905)"><path d="M28.028784730449097 -5.847272873638267 C39.0552732907645 1.7683691118115359, 49.55979371775974 2.49106805656322, 51.96519428741187 6.953447658307851 M28.934773027874307 -4.886167861303384 C35.54584428392557 -0.7585456664287835, 41.53409847143569 1.922088035842238, 54.443565362766385 6.403626096174121" stroke="#000000" stroke-width="1" fill="none"></path></g></g><g><g stroke-opacity="0.5" fill-opacity="0.5" transform="translate(181 173.0096442596448) rotate(0 129.44238710926038 23.298423882198477)"><path d="M-0.10786246396601196 -1.028998103365302 C0.475718796874086 6.588710575674971, -42.68309349951645 41.2270181749016, 3.6325524535030125 45.93948304392397 C49.94819840652247 50.65194791294634, 232.22765400869153 30.286653547858197, 277.78601325415076 27.245791110768913 M-1.623628986887634 1.045173947028816 C-1.241688852918645 8.754047430766127, -43.93033645571519 42.31227950494736, 2.49159702796489 46.920136893205346 C48.91353051164498 51.52799428146333, 231.2073166475569 32.26189422012617, 276.9079719151929 28.6923182765767" stroke="#000000" stroke-width="1" fill="none"></path></g><g stroke-opacity="0.5" fill-opacity="0.5" transform="translate(181 173.0096442596448) rotate(0 129.44238710926038 23.298423882198477)"><path d="M248.03960609319006 40.83508319176127 C256.4048656198933 37.14939186278302, 267.0246275326484 31.84468340887561, 278.06515261750667 26.961999665088953 M249.1244701647604 42.308681963489846 C257.8194801522328 37.7532703684849, 265.8621585408543 34.689281437426985, 277.63159345962106 28.627889368757607" stroke="#000000" stroke-width="1" fill="none"></path></g><g stroke-opacity="0.5" fill-opacity="0.5" transform="translate(181 173.0096442596448) rotate(0 129.44238710926038 23.298423882198477)"><path d="M246.19341760317084 20.39708939478697 C255.17242099352052 23.067680940013016, 266.36620366065847 24.117595906647576, 278.06515261750667 26.961999665088953 M247.27828167474118 21.870688166515546 C256.6924099361097 23.23782084173616, 265.26958803542766 26.090942666571596, 277.63159345962106 28.627889368757607" stroke="#000000" stroke-width="1" fill="none"></path></g></g><g stroke-opacity="0.5" fill-opacity="0.5" transform="translate(287 140.0096442596448) rotate(0 66 14.5)"><path d="M0.10039597190916538 -1.7860399726778269 C45.43975217491389 -1.1293109821155667, 95.68639025352897 -1.4803863333538174, 130.1775640193373 1.192777430638671 M-0.5716736735776067 0.7401027353480458 C42.79087675679476 1.981953075826168, 87.24579149838539 1.6492161962389946, 131.12039940338582 0.7996008368209004 M130.82938277162611 1.1357691641896963 C132.97175639674998 8.234589824359865, 132.65952551172114 15.880321724154056, 132.04131072200835 27.109862064942718 M131.8927909610793 0.9124822588637471 C132.35709256547503 10.84826425416395, 131.3300381662231 20.275376396253705, 132.3745244918391 29.671745565719903 M131.7270497623831 29.419079994782805 C96.05175033733248 27.236357907392083, 58.055339233204705 27.213167230226098, 1.3355174008756876 27.7604576703161 M132.46943344455212 29.021801975555718 C105.65861678216606 27.702152400687336, 78.36979089584202 28.732420205548404, -0.08391011971980333 28.5746110053733 M-1.275389676913619 28.66490570269525 C0.8653864237572998 20.272151370812207, 0.8989158841874451 9.933998708240686, -1.5925869401544333 0.23581180535256863 M-0.8722943188622594 28.480934199877083 C-0.07393701191060248 21.885473846737295, 0.04634936337359247 15.165193738043307, -0.7590853394940495 0.19157728273421526" stroke="#000000" stroke-width="1" fill="none"></path></g><g stroke-opacity="0.5" fill-opacity="0.5" transform="translate(487 140.0096442596448) rotate(0 66 14.5)"><path d="M-0.519135320559144 0.8189412895590067 C43.86340703815222 -0.345921084396541, 90.7175432536751 0.7425648121908308, 131.52341995202005 -0.9954960402101278 M-0.7032827762886882 -0.16289423126727343 C30.04280640911311 -0.10705358833074574, 58.588392245210706 -0.7170194789767266, 132.7043970497325 -0.05001236218959093 M133.95644769631326 -0.31325126253068447 C131.3216506755259 9.071800939459354, 132.3430499946978 17.312804450653495, 132.71675161086023 27.317007834091783 M132.50695284921676 -0.879015457816422 C131.17990939018316 8.379655409324915, 131.63060070273465 18.81348477713764, 132.02220427710563 28.822660165838897 M131.1952047701925 28.729461962357163 C98.15736417844892 27.11494889523834, 61.74724537320435 27.243409004472195, 0.04721972905099392 28.343541020527482 M131.33561670500785 28.553967433981597 C91.50923330392688 29.29082913212478, 52.10447790119795 29.720354894921183, -0.15188131015747786 29.53727738838643 M-0.7780227903276682 29.0618880931288 C-0.47436567439697686 17.9642795230262, 1.7074378500971943 4.443447457440197, 0.34239999018609524 -0.010073726996779442 M-0.09445795696228743 29.41995947342366 C-0.004785065846517694 18.462259822245684, 1.060619915528223 7.415985761582849, 0.4192313523963094 0.7166115222498775" stroke="#000000" stroke-width="1" fill="none"></path></g><g stroke-opacity="0.5" fill-opacity="0.5" transform="translate(287 142.0096442596448) rotate(0 66 13)"><text x="0" y="18" font-family="Virgil, Segoe UI Emoji" font-size="20px" fill="#000000" text-anchor="start" style="white-space: pre;" direction="ltr">signupRequest</text></g><g stroke-opacity="0.5" fill-opacity="0.5" transform="translate(497 145.0096442596448) rotate(0 59 13)"><text x="0" y="18" font-family="Virgil, Segoe UI Emoji" font-size="20px" fill="#000000" text-anchor="start" style="white-space: pre;" direction="ltr">loginRequest</text></g><g stroke-opacity="0.5" fill-opacity="0.5" transform="translate(545 357.0096442596448) rotate(0 42 22.5)"><path d="M0.3085427638143301 1.667752081528306 C31.347471964359286 -0.25620855893939737, 63.259728420153266 1.8308544555678963, 85.30501267872751 -1.732985144481063 M-0.9479008940979838 -0.12405900377780199 C20.859009811095895 -0.7636886401474476, 43.171777030266824 0.7965210215747356, 83.42999568302184 -0.6783848525956273 M84.02579066716135 0.9412945453077555 C85.24366086586379 12.97400872083381, 85.74298453195952 23.908206432126466, 83.7393988724798 45.52297347225249 M84.49077596981078 0.24683873634785414 C83.51683379304595 13.711995803285392, 83.9716964770574 28.906693695113066, 84.72752588707954 45.402095216326416 M85.1237663384527 46.324923450127244 C62.059087835997346 46.536896316222844, 40.32855201847851 46.88829877775162, 1.5183189865201712 43.77579831518233 M84.20101827103645 44.35296120028943 C65.63611607309431 45.18707207597792, 45.35935798678547 43.71560639895499, 0.5476286085322499 45.58056246023625 M1.623404836282134 44.37485217489302 C-0.7075279796030371 31.666783608030528, 1.5833034074399621 13.401336272247132, -0.15955754555761814 1.9977183882147074 M-0.28613761346787214 44.851260292343795 C0.5296803161036223 31.538136166986078, 0.7739392861258239 18.968163706362244, -0.6519019631668925 0.04033597093075514" stroke="#000000" stroke-width="1" fill="none"></path></g><g stroke-opacity="0.5" fill-opacity="0.5" transform="translate(143 348.0096442596448) rotate(0 97 25)"><path d="M-1.0299014691263437 1.6261838022619486 C72.57007645275444 -2.460739585328847, 140.66398709863424 -0.6846049155481158, 192.35711715184152 0.4020365420728922 M-0.3326758174225688 -0.5943828048184514 C46.19507589414716 -1.1209783118404446, 91.62541263531894 -1.2640691261924801, 193.19381847698241 0.811702418141067 M195.78016564808786 -1.6240011509507895 C193.7127760197036 15.434848825447263, 193.7366510774009 25.344889368861917, 193.708053028211 49.427724773064256 M194.4298306973651 0.3575925109907985 C193.44088390050456 14.296637432649733, 193.15043866215274 28.470838413573805, 193.98534434754401 50.557000297121704 M192.7204722519964 49.91607611812651 C118.0602562667802 51.605853773076085, 39.948538435250526 49.2430075773783, -1.3000904563814402 49.33358001150191 M194.88992804009467 49.716423409990966 C142.63929215036333 48.617279181648044, 92.52665388789028 48.08948568480089, -0.9229693738743663 49.34535371046513 M-0.5161715988069773 49.8807539884001 C0.2932850387878716 36.64492405299097, 0.37136312993243337 24.707672379910942, -0.29676886834204197 -1.3300437387079 M0.8677150877192616 49.47499929647893 C-0.4010994448326528 31.561254519969225, -0.8538085534237325 12.19315164256841, -0.5342659978196025 0.4460192499682307" stroke="#000000" stroke-width="1" fill="none"></path></g><g stroke-opacity="0.5" fill-opacity="0.5" transform="translate(558 367.0096442596448) rotate(0 27.5 13)"><text x="0" y="18" font-family="Virgil, Segoe UI Emoji" font-size="20px" fill="#000000" text-anchor="start" style="white-space: pre;" direction="ltr">failed</text></g><g stroke-opacity="0.5" fill-opacity="0.5" transform="translate(170 362.0096442596448) rotate(0 67.5 13)"><text x="0" y="18" font-family="Virgil, Segoe UI Emoji" font-size="20px" fill="#000000" text-anchor="start" style="white-space: pre;" direction="ltr">authenticated</text></g><g><g stroke-opacity="0.5" fill-opacity="0.5" transform="translate(222.65169113713773 253.00964425964486) rotate(0 6.451481793184485 43.79051382876929)"><path d="M0.35258456133306026 -1.1906398918479681 C2.7648014225986723 13.635313619549065, 11.288690504147175 73.9085424834241, 13.824410859675481 88.77166754938656 M-0.9214472733065486 0.7986702195927502 C1.338932004178775 15.302617072674126, 9.85048341420895 72.3041040754442, 12.572800214582458 87.05421826403582" stroke="#000000" stroke-width="1" fill="none"></path></g><g stroke-opacity="0.5" fill-opacity="0.5" transform="translate(222.65169113713773 253.00964425964486) rotate(0 6.451481793184485 43.79051382876929)"><path d="M-4.116735005480852 59.941733589140824 C2.730043229989353 69.23334785577124, 5.0404871211606 73.1937734495388, 11.808127374568357 87.53155794341112 M-1.7004326309167404 61.27365617335414 C3.851369964716683 70.55846016034373, 9.300772202169401 81.16423998952342, 11.984853260399177 86.26679288290435" stroke="#000000" stroke-width="1" fill="none"></path></g><g stroke-opacity="0.5" fill-opacity="0.5" transform="translate(222.65169113713773 253.00964425964486) rotate(0 6.451481793184485 43.79051382876929)"><path d="M16.13172858349428 56.60710847201179 C17.993772477637485 66.77828724429534, 15.324596606542887 71.55878321328115, 11.808127374568357 87.53155794341112 M18.54803095805839 57.939031056225105 C16.318999703967236 68.51825378855277, 14.009531754521795 80.40180579496875, 11.984853260399177 86.26679288290435" stroke="#000000" stroke-width="1" fill="none"></path></g></g><g><g stroke-opacity="0.5" fill-opacity="0.5" transform="translate(545.3094642388552 255.0096442596448) rotate(0 0.12230584785550036 46.24643497103827)"><path d="M-1.0243232522159815 -0.30770771764218807 C-0.8823824323210261 15.392418894544242, 0.7858758876755134 78.58902129866182, 1.268934947926914 94.00772815681994 M0.6387683110311628 -1.5148582147434355 C0.6072416128349165 13.884702617041766, 0.2950160611330762 76.6443342686817, 0.44728937361798216 92.41421069037169" stroke="#000000" stroke-width="1" fill="none"></path></g><g stroke-opacity="0.5" fill-opacity="0.5" transform="translate(545.3094642388552 255.0096442596448) rotate(0 0.12230584785550036 46.24643497103827)"><path d="M-10.362938404464487 64.63811457320193 C-4.76857391462574 75.16756106076346, -4.326601094676021 82.57962311754869, -0.18815886798837256 90.69214011002332 M-10.342119255484405 63.59925499069581 C-4.867660199447193 74.90752877422622, -0.8485076211736882 87.10903605552207, -0.18866497940906357 92.26163572184741" stroke="#000000" stroke-width="1" fill="none"></path></g><g stroke-opacity="0.5" fill-opacity="0.5" transform="translate(545.3094642388552 255.0096442596448) rotate(0 0.12230584785550036 46.24643497103827)"><path d="M10.158252723803155 64.61133654211213 C8.882609430800223 74.97457817914832, 2.4546175429411345 82.39560482904035, -0.18815886798837256 90.69214011002332 M10.179071872783236 63.57247695960601 C7.51584600910892 74.95844366555681, 3.397303824705217 87.1705697965087, -0.18866497940906357 92.26163572184741" stroke="#000000" stroke-width="1" fill="none"></path></g></g><g stroke-opacity="0.5" fill-opacity="0.5" transform="translate(252 268.0096442596448) rotate(0 29.5 13)"><text x="0" y="18" font-family="Virgil, Segoe UI Emoji" font-size="20px" fill="#000000" text-anchor="start" style="white-space: pre;" direction="ltr">DONE</text></g><g stroke-opacity="0.5" fill-opacity="0.5" transform="translate(575 278.0096442596448) rotate(0 33.5 13)"><text x="0" y="18" font-family="Virgil, Segoe UI Emoji" font-size="20px" fill="#000000" text-anchor="start" style="white-space: pre;" direction="ltr">ERROR</text></g><g stroke-opacity="0.5" fill-opacity="0.5" transform="translate(900.893603393602 9.999999999999972) rotate(0 489.0624999999998 300.78125)"><path d="M-0.2698637507855892 0.6068858288228512 C202.51661781746654 -2.2830011348589316, 403.5439662375253 -1.973424408899154, 977.3855556227262 0.6804646395146847 M-0.1392538357526064 -0.3219056140631438 C330.8644887832574 2.4233218242763526, 662.3714735134735 2.418025152885819, 978.4800783704961 -0.011977757140994073 M977.6073610045012 0.24804829582571986 C979.820214918983 213.5696569427557, 979.4617829836726 427.90981035897283, 977.9219821907575 601.6898300789296 M977.7282714437689 -0.0841378103941679 C979.6192693459972 236.49497161184553, 979.291068207024 473.9810745185823, 978.3348423432554 601.2622513044626 M977.5516916252668 600.9939432762563 C612.4959320678955 605.8766106683179, 246.78499444045582 604.9398510295316, 0.7903827883303166 602.1300754927099 M978.3039369057859 601.4258792150765 C607.2302427994433 602.8444631333114, 235.32148514024425 602.8570978278876, 0.03152335397899151 601.6263199198991 M0.2895197130739689 600.9685697935522 C1.5026060674514157 443.1137361083471, 1.3544997546996456 284.56021086430405, 0.35855526700615886 0.6212936542928219 M-0.007679812982678414 601.2502475131303 C1.1790867128234823 415.950822035101, 1.0585767664771992 230.98458633063123, 0.02274591438472271 0.36803326494991784" stroke="#000000" stroke-width="1" fill="none"></path></g><g stroke-opacity="0.5" fill-opacity="0.5" transform="translate(918.081103393602 24.43749999999997) rotate(0 16.5 13)"><text x="0" y="18" font-family="Virgil, Segoe UI Emoji" font-size="20px" fill="#000000" text-anchor="start" style="white-space: pre;" direction="ltr">App</text></g><g stroke-opacity="0.5" fill-opacity="0.5" transform="translate(949.081103393602 93.68749999999997) rotate(0 83.59375 28.906250000000014)"><path d="M-0.03839906491339207 -1.561262434348464 C51.83629356962047 -1.7472231136489427, 102.76900584221586 0.5746764792274917, 167.3012295719236 1.840166324749589 M-0.08450860064476728 0.685338276438415 C38.991038259729976 0.729821278466261, 78.83458763017552 1.735936625613249, 168.16181716043502 -0.7363486411049962 M165.30835399590433 -0.2567637022584677 C169.21655236835068 16.230097426712753, 167.44911806935852 32.103671583638075, 165.4365320559591 56.838873201981215 M166.40876993257552 -0.07908464688807726 C167.2478521012381 11.079222580272479, 166.24884401193412 23.69808869872942, 166.332735654898 57.48279758077118 M168.28205064497888 56.866683775559096 C101.91225028704503 56.233629811540624, 37.412847496860195 57.44413642956354, -1.8491344694048166 58.2425273600966 M167.22531068045646 56.97185631375763 C100.84918258650578 56.007964324453525, 35.285063350282144 56.371442418792896, 0.8025328190997243 56.874210762791364 M-0.6393428090959787 56.09576212801042 C-0.5244036372605478 40.904621440306094, 1.7855584565695608 24.66476897586837, 1.5999306794255972 -1.7461734469980001 M0.13638439495116472 57.223628687672345 C0.3051536583661799 43.953313829522834, 0.5951756441354518 32.70794995251346, -0.4182627825066447 0.03722562175244093" stroke="#000000" stroke-width="1" fill="none"></path></g><g stroke-opacity="0.5" fill-opacity="0.5" transform="translate(1005.331103393602 108.12499999999997) rotate(0 21.5 13.000000000000014)"><text x="21.5" y="18" font-family="Virgil, Segoe UI Emoji" font-size="20px" fill="#000000" text-anchor="middle" style="white-space: pre;" direction="ltr">User</text></g><g stroke-opacity="0.5" fill-opacity="0.5" transform="translate(18.518603393601893 540.3125) rotate(0 342.18750000000006 189.0625)"><path d="M-0.5924001954495907 -0.5498345471918583 C196.00390610090693 -0.5456221781787463, 392.52938491313256 -0.41803931818576534, 684.5219524361195 0.7410439155995846 M0.2880824636667967 -0.37139634005725386 C182.61481978100494 -1.1282818319159564, 364.6293573150179 -1.3460788847762164, 684.7477173279972 0.23813974745571614 M685.2323529706737 -0.15070861740896524 C684.0441167337912 116.53909606084925, 684.4556241838951 235.1019747898539, 685.5458825334944 377.58334430289335 M684.1920093243407 -0.5027932562321962 C682.3804677060965 134.3858041008473, 682.0873831087727 268.22958216835144, 684.3271506298499 378.1662609827821 M684.8614870287479 378.14036468490957 C438.11082120322396 377.3414473816869, 193.70109547169415 377.3174692675588, -0.25568347200751307 378.42812272533774 M684.5815013241024 378.15041574127974 C475.53411589461615 379.75447838919933, 267.36981876774223 380.0755843819934, 0.07045976631343365 378.48837971575557 M0.5241426022261497 378.7996640584749 C-1.382346644596388 273.9626018533217, -1.3608306474925924 168.66162348758067, 0.38149390272637873 -0.41365549497099635 M-0.01515067148777307 377.71413961370615 C1.1958276373323493 295.00868502679384, 1.343860754980541 210.5876445316081, 0.4268321759102323 0.1531223628260477" stroke="#000000" stroke-width="1" fill="none"></path></g><g stroke-opacity="0.5" fill-opacity="0.5" transform="translate(37.64360339360189 557.875) rotate(0 21.5 13)"><text x="0" y="18" font-family="Virgil, Segoe UI Emoji" font-size="20px" fill="#000000" text-anchor="start" style="white-space: pre;" direction="ltr">User</text></g><g stroke-opacity="0.5" fill-opacity="0.5" transform="translate(46.64360339360189 616.875) rotate(0 84.375 19.53125)"><path d="M0.5692020002752542 -0.050244713202118874 C43.47508129349445 1.1192778031690978, 91.56436550919899 1.6102053205831908, 168.20129405893385 1.4155187960714102 M-0.8300921143963933 0.623545971699059 C54.09720594843384 0.22353418363491073, 110.63700992404483 -0.4930337201221846, 168.11851553898305 -0.386417749337852 M168.45107423700392 -1.4455055836588144 C168.926879920371 7.316389164159773, 170.8604147213773 17.681103354727384, 170.31436174549162 40.36831662617624 M169.0601881025359 -0.9101024894043803 C169.29732312301348 13.028152614162536, 168.91978578308772 26.740330637956504, 169.47094156127423 39.63260426837951 M169.92814033664763 37.074690317735076 C124.94835765415337 38.78989601327339, 85.78296133945695 39.65900117350975, -1.9109094198793173 37.5538930054754 M168.24196745734662 39.82363357860595 C135.41093626769725 39.407077927084174, 101.3173499556724 38.54789947340032, -0.7997145773842931 40.040135082788765 M1.548801178112626 37.2441686745733 C-0.4984655951411696 27.98105548301828, 0.5664740825741319 20.219077163899783, -1.2601029332727194 1.5713079925626516 M0.18860410433262587 39.171220240183175 C0.4196472601761343 25.829836190416245, 0.3395971791615011 12.825912658532616, -0.5687275351956487 0.9531485708430409" stroke="#000000" stroke-width="1" fill="none"></path></g><g stroke-opacity="0.5" fill-opacity="0.5" transform="translate(56.39360339360189 628.75) rotate(0 77.5 13)"><text x="0" y="18" font-family="Virgil, Segoe UI Emoji" font-size="20px" fill="#000000" text-anchor="start" style="white-space: pre;" direction="ltr">unauthenticated</text></g></svg>